<svg xmlns="http://www.w3.org/2000/svg" xml:space="preserve" id="svg118" version="1.1" viewBox="200 300 300 300">
  <g id="Outlined_Text" transform="matrix(.46365 0 0 .5149 67.988 188.492)">
    <g id="g115">
      <g id="g113">
        <g id="g95" fill="#3C89C9">
          <g id="g93">
            <path id="path79" d="M171.38 537.4h39.2c6.46 0 12.52.79 18.18 2.36 5.66 1.57 10.58 3.87 14.75 6.89 4.18 3.02 7.48 6.73 9.91 11.11 2.43 4.39 3.64 9.39 3.64 15.02 0 5.63-1.17 10.53-3.51 14.71-2.34 4.18-5.42 7.64-9.24 10.4-3.82 2.75-8.18 4.8-13.07 6.13-4.89 1.33-9.85 2-14.89 2-2.13 0-4.39-.06-6.76-.18s-4.65-.28-6.84-.49c-2.19-.21-4.22-.43-6.09-.67-1.87-.24-3.36-.5-4.49-.8v57.33h-20.8V537.4Zm20.8 59.56c2.31.65 4.81 1.28 7.51 1.87 2.7.59 5.44.89 8.22.89 4.5 0 8.43-.67 11.78-2 3.35-1.33 6.13-3.17 8.36-5.51 2.22-2.34 3.88-5.07 4.98-8.18 1.1-3.11 1.64-6.44 1.64-10 0-4.15-.73-7.92-2.18-11.33-1.45-3.41-3.42-6.3-5.91-8.67s-5.42-4.21-8.8-5.51c-3.38-1.3-6.99-1.96-10.84-1.96h-14.76v50.4z" class="st3"/>
            <path id="path81" d="M361.34 537.4v8H296.1v44.27h43.64v8H296.1v55.56h65.24v8H275.3V537.4Z" class="st3"/>
            <path id="path83" d="M403.47 599.71c0 8.71 1.3 16.5 3.91 23.38 2.61 6.88 6.19 12.7 10.75 17.47s9.97 8.42 16.22 10.93c6.25 2.52 13.02 3.78 20.31 3.78 4.33 0 8.5-.84 12.53-2.53a48.98 48.98 0 0 0 11.24-6.58c3.47-2.7 6.56-5.75 9.29-9.16 2.72-3.41 4.98-6.86 6.75-10.36l8.71 5.6c-2.55 4.15-5.56 8.15-9.02 12-3.47 3.85-7.48 7.24-12.04 10.18-4.56 2.93-9.72 5.29-15.47 7.07-5.75 1.78-12.18 2.67-19.29 2.67-6.82 0-13.25-.79-19.29-2.36-6.04-1.57-11.6-3.76-16.67-6.58-5.07-2.81-9.6-6.21-13.6-10.18-4-3.97-7.38-8.34-10.13-13.11a64.313 64.313 0 0 1-6.36-15.33c-1.48-5.45-2.22-11.08-2.22-16.89 0-5.81.75-11.45 2.27-16.93 1.51-5.48 3.67-10.64 6.49-15.47 2.81-4.83 6.27-9.26 10.36-13.29 4.09-4.03 8.7-7.48 13.82-10.36 5.13-2.87 10.74-5.11 16.84-6.71 6.1-1.6 12.62-2.4 19.56-2.4 6.58 0 12.64.89 18.18 2.67 5.54 1.78 10.61 4.13 15.2 7.07 4.59 2.93 8.67 6.33 12.22 10.18 3.56 3.85 6.61 7.85 9.16 12l-8.98 6.04c-5.21-10.01-11.02-17.36-17.42-22.04-6.4-4.68-13.75-7.02-22.04-7.02-7.17 0-13.87 1.3-20.09 3.91-6.22 2.61-11.64 6.34-16.27 11.2-4.62 4.86-8.27 10.76-10.93 17.69-2.66 6.93-3.99 14.75-3.99 23.46z" class="st3"/>
            <path id="path85" d="M526.76 537.4h20.8v80.36c0 5.28.9 10.24 2.71 14.89s4.4 8.73 7.78 12.22c3.38 3.5 7.44 6.25 12.18 8.27 4.74 2.02 10.04 3.02 15.91 3.02 5.92 0 11.26-1.01 16-3.02s8.77-4.77 12.09-8.27c3.32-3.5 5.87-7.57 7.64-12.22 1.78-4.65 2.67-9.61 2.67-14.89V537.4h9.16v80.36c0 6.34-1.02 12.31-3.07 17.91-2.04 5.6-5.26 10.52-9.64 14.76-4.39 4.24-10 7.59-16.84 10.04-6.84 2.46-15.07 3.69-24.67 3.69-8.53 0-16.09-1.23-22.67-3.69-6.58-2.46-12.09-5.82-16.53-10.09-4.44-4.27-7.81-9.24-10.09-14.93-2.28-5.69-3.42-11.73-3.42-18.13V537.4Z" class="st3"/>
            <path id="path87" d="M662.58 537.4h11.64l81.16 90.49h.8V537.4h9.16v126.76h-4.8l-87.91-100.71h-.71v97.78h-9.33V537.4Z" class="st3"/>
            <path id="path89" d="M796.44 537.4h20.8v123.82h-20.8z" class="st3"/>
            <path id="path91" d="m898.04 534.56 58.31 126.67H935.2l-18.93-41.33H863.2l-19.56 41.33h-10.4l59.64-126.67zm-31.2 77.33h45.6l-22.49-48.98z" class="st3"/>
          </g>
        </g>
        <g id="g111">
          <g id="g109">
            <path id="path97" d="M237.25 391.4v8h-44.8v115.82h-20.8V399.4h-44.89v-8z" class="st0"/>
            <path id="path99" d="M349.6 391.4v8h-65.24v44.27H328v8h-43.64v55.56h65.24v8h-86.04V391.4Z" class="st0"/>
            <path id="path101" d="M379.91 391.4h21.24l48.18 95.02h.98l47.29-95.02h20.89v123.82H497.6V413.8h-.71l-50.76 101.42h-4.27l-51.38-100.71h-1.42v100.71h-9.16V391.4Z" class="st0"/>
            <path id="path103" d="M556.8 391.4H596c6.46 0 12.52.79 18.18 2.36 5.66 1.57 10.58 3.87 14.75 6.89 4.18 3.02 7.48 6.73 9.91 11.11 2.43 4.39 3.64 9.39 3.64 15.02 0 5.63-1.17 10.53-3.51 14.71-2.34 4.18-5.42 7.64-9.24 10.4-3.82 2.75-8.18 4.8-13.07 6.13-4.89 1.33-9.85 2-14.89 2-2.13 0-4.39-.06-6.76-.18s-4.65-.28-6.84-.49c-2.19-.21-4.22-.43-6.09-.67-1.87-.24-3.36-.5-4.49-.8v57.33h-20.8V391.4Zm20.8 59.56c2.31.65 4.81 1.28 7.51 1.87 2.7.59 5.44.89 8.22.89 4.5 0 8.43-.67 11.78-2 3.35-1.33 6.13-3.17 8.36-5.51 2.22-2.34 3.88-5.07 4.98-8.18 1.1-3.11 1.64-6.44 1.64-10 0-4.15-.73-7.92-2.18-11.33-1.45-3.41-3.42-6.3-5.91-8.67s-5.42-4.21-8.8-5.51c-3.38-1.3-6.99-1.96-10.84-1.96H577.6Z" class="st0"/>
            <path id="path105" d="M665.69 391.4h20.8v80.36c0 5.28.9 10.24 2.71 14.89s4.4 8.73 7.78 12.22c3.38 3.5 7.44 6.25 12.18 8.27 4.74 2.02 10.04 3.02 15.91 3.02 5.92 0 11.26-1.01 16-3.02s8.77-4.77 12.09-8.27c3.32-3.5 5.87-7.57 7.64-12.22 1.78-4.65 2.67-9.61 2.67-14.89V391.4h9.16v80.36c0 6.34-1.02 12.31-3.07 17.91-2.04 5.6-5.26 10.52-9.64 14.76-4.39 4.24-10 7.59-16.84 10.04-6.84 2.46-15.07 3.69-24.67 3.69-8.53 0-16.09-1.23-22.67-3.69-6.58-2.46-12.09-5.82-16.53-10.09-4.44-4.27-7.81-9.24-10.09-14.93-2.28-5.69-3.42-11.73-3.42-18.13V391.4Z" class="st0"/>
            <path id="path107" d="M842.57 510.25c3.08 0 6.12-.41 9.11-1.25 2.99-.83 5.66-2.07 8-3.73 2.34-1.66 4.22-3.69 5.64-6.09s2.13-5.17 2.13-8.31c0-3.79-.98-7.16-2.93-10.09-1.96-2.93-4.52-5.64-7.69-8.13-3.17-2.49-6.8-4.81-10.89-6.98-4.09-2.16-8.25-4.34-12.49-6.53-4.24-2.19-8.4-4.49-12.49-6.89-4.09-2.4-7.72-5.07-10.89-8-3.17-2.93-5.73-6.22-7.69-9.87-1.96-3.64-2.93-7.84-2.93-12.58s.89-9.14 2.67-13.2c1.78-4.06 4.38-7.57 7.82-10.53 3.44-2.96 7.66-5.29 12.67-6.98 5.01-1.69 10.77-2.53 17.29-2.53 11.73 0 20.99 2.46 27.78 7.38 6.79 4.92 11.69 12.03 14.71 21.33l-10.67 4.89c-1.25-3.79-2.83-7.26-4.76-10.4-1.93-3.14-4.24-5.84-6.93-8.09-2.7-2.25-5.79-3.98-9.29-5.2-3.5-1.21-7.44-1.82-11.82-1.82-3.91 0-7.33.55-10.27 1.64-2.93 1.1-5.36 2.52-7.29 4.27-1.93 1.75-3.38 3.73-4.36 5.96-.98 2.22-1.47 4.49-1.47 6.8 0 3.26 1.01 6.24 3.02 8.93 2.01 2.7 4.65 5.26 7.91 7.69 3.26 2.43 6.99 4.76 11.2 6.98 4.21 2.22 8.49 4.49 12.84 6.8 4.36 2.31 8.64 4.71 12.84 7.2 4.21 2.49 7.94 5.22 11.2 8.18 3.26 2.96 5.9 6.21 7.91 9.73 2.01 3.53 3.02 7.45 3.02 11.78 0 4.92-.93 9.53-2.8 13.82-1.87 4.3-4.67 8.06-8.4 11.29-3.73 3.23-8.37 5.78-13.91 7.64-5.54 1.87-11.99 2.8-19.33 2.8-5.93 0-11.23-.65-15.91-1.96-4.68-1.3-8.82-3.2-12.4-5.69-3.59-2.49-6.65-5.54-9.2-9.16-2.55-3.61-4.65-7.7-6.31-12.27l11.2-4.62c1.3 4.03 3.05 7.64 5.24 10.84 2.19 3.2 4.76 5.91 7.69 8.13 2.93 2.22 6.19 3.91 9.78 5.07 3.62 1.17 7.42 1.75 11.45 1.75z" class="st0"/>
          </g>
        </g>
      </g>
    </g>
  </g>
</svg>
